<?xml version="1.0" standalone="no"?>
<!DOCTYPE svg PUBLIC "-//W3C//DTD SVG 20010904//EN"
 "http://www.w3.org/TR/2001/REC-SVG-20010904/DTD/svg10.dtd">
<svg version="1.0" xmlns="http://www.w3.org/2000/svg"
 width="260.000000pt" height="251.000000pt" viewBox="0 0 260.000000 251.000000"
 preserveAspectRatio="xMidYMid meet">
<metadata>
Created by potrace 1.10, written by Peter Selinger 2001-2011
</metadata>
<g transform="translate(0.000000,251.000000) scale(0.100000,-0.100000)"
fill="#000000" stroke="none">
<path d="M1205 2196 c-22 -7 -51 -18 -64 -25 -45 -25 -113 -95 -139 -146 -24
-44 -27 -62 -27 -145 0 -111 21 -167 90 -235 62 -63 125 -89 220 -93 105 -5
176 21 243 86 75 74 97 128 97 242 0 83 -3 101 -27 145 -75 143 -246 217 -393
171z m173 -51 c69 -21 129 -69 166 -135 26 -47 31 -64 31 -130 0 -62 -5 -84
-27 -126 -85 -162 -291 -204 -427 -87 -99 84 -125 222 -66 338 35 69 84 111
157 136 65 23 100 23 166 4z"/>
<path d="M988 1516 c-57 -15 -114 -52 -152 -97 -25 -30 -89 -124 -339 -493
-59 -87 -67 -104 -67 -146 0 -50 22 -90 63 -112 12 -7 94 -26 182 -43 l159
-30 12 -40 c59 -203 245 -345 454 -345 203 0 389 135 447 325 12 40 23 57 38
60 11 2 79 16 150 30 157 32 178 39 210 77 19 22 25 41 25 77 0 46 -9 61 -189
327 -104 154 -205 298 -226 321 -20 24 -63 55 -94 70 l-56 28 -285 1 c-196 1
-300 -2 -332 -10z m464 -206 l-96 -160 -67 0 c-81 0 -171 -26 -239 -70 -61
-39 -142 -126 -167 -180 -18 -40 -32 -46 -80 -32 -21 7 -19 11 38 95 59 86 70
122 37 122 -20 0 -168 -208 -168 -236 0 -19 -1 -18 145 -45 104 -18 135 -39
135 -91 0 -43 -30 -73 -73 -73 -17 0 -112 15 -210 34 -193 37 -227 53 -227
105 0 28 382 600 423 634 12 10 40 27 62 37 36 18 65 20 311 20 l271 0 -95
-160z m192 137 c17 -12 11 -25 -80 -168 -54 -85 -98 -155 -99 -157 -1 -1 -14
2 -28 7 l-25 10 96 160 c53 89 101 161 107 161 6 0 19 -6 29 -13z m275 -347
c132 -194 201 -304 201 -321 0 -52 -32 -67 -249 -111 l-202 -41 -27 20 c-32
24 -41 73 -18 108 15 23 30 27 214 66 37 7 52 15 52 27 0 29 -121 202 -142
202 -35 0 -30 -29 14 -92 24 -35 47 -68 51 -74 4 -8 -8 -15 -33 -22 l-39 -10
-22 45 c-28 57 -110 147 -165 179 l-42 25 47 72 c26 40 69 107 96 150 27 42
52 76 56 75 4 -2 98 -136 208 -298z m-530 -11 c108 -24 229 -114 275 -202 21
-40 21 -42 -9 -51 -16 -5 -23 1 -34 26 -22 50 -105 126 -169 156 -49 23 -70
27 -152 27 -77 0 -104 -5 -144 -23 -66 -30 -128 -82 -162 -137 -20 -31 -36
-45 -51 -45 -31 0 -29 13 13 76 92 138 272 210 433 173z m-118 -211 c-2 -107
-4 -114 -28 -140 -20 -21 -26 -37 -25 -65 1 -35 -5 -45 -75 -115 -43 -43 -81
-78 -86 -78 -4 0 -21 28 -37 62 l-29 61 24 29 c36 43 41 89 16 140 l-20 42 20
32 c27 44 94 103 138 121 39 17 94 32 100 27 2 -2 3 -54 2 -116z m196 71 c37
-23 99 -90 115 -124 9 -20 8 -28 -5 -43 -37 -40 -30 -128 13 -167 19 -17 19
-18 -11 -76 -16 -33 -32 -59 -36 -59 -4 0 -43 35 -85 77 -72 72 -78 81 -78
119 0 30 -6 46 -25 64 -24 22 -25 29 -25 141 l0 118 53 -15 c28 -9 66 -25 84
-35z m-142 -269 c0 -18 -6 -26 -23 -28 -24 -4 -38 18 -28 44 3 9 15 14 28 12
17 -2 23 -10 23 -28z m96 -156 c43 -43 79 -82 79 -87 0 -4 -28 -21 -62 -37
-52 -25 -76 -30 -138 -30 -62 0 -86 5 -137 30 -35 16 -63 33 -63 37 0 4 36 44
80 88 75 75 82 80 121 79 37 -1 48 -8 120 -80z m-466 27 c10 -47 79 -135 137
-174 135 -92 307 -85 442 18 40 31 102 118 112 158 5 22 12 27 35 27 26 0 28
-2 19 -24 -59 -155 -182 -260 -337 -287 -174 -31 -358 69 -439 236 l-34 70 22
6 c30 8 35 4 43 -30z"/>
</g>
</svg>
