<?xml version="1.0" standalone="no"?>
<!DOCTYPE svg PUBLIC "-//W3C//DTD SVG 20010904//EN"
 "http://www.w3.org/TR/2001/REC-SVG-20010904/DTD/svg10.dtd">
<svg version="1.0" xmlns="http://www.w3.org/2000/svg"
 width="814.000000pt" height="342.000000pt" viewBox="0 0 814.000000 342.000000"
 preserveAspectRatio="xMidYMid meet">
<metadata>
Created by potrace 1.16, written by Peter Selinger 2001-2019
</metadata>
<g transform="translate(0.000000,342.000000) scale(0.100000,-0.100000)"
fill="#000000" stroke="none">
<path d="M5525 3293 c70 -63 117 -103 165 -143 139 -115 460 -436 558 -558 32
-38 41 -50 93 -110 10 -12 19 -26 19 -30 0 -4 13 -22 29 -40 17 -17 28 -32 25
-32 -3 0 4 -12 15 -26 11 -14 29 -45 41 -69 12 -24 32 -55 46 -67 13 -13 24
-28 24 -34 0 -6 7 -25 16 -42 l15 -32 160 0 c87 0 159 2 159 4 0 17 -103 176
-167 256 -423 538 -827 856 -1188 935 -30 6 -30 6 -10 -12z"/>
<path d="M5960 3303 c0 -5 15 -18 33 -31 17 -12 51 -39 73 -60 23 -20 67 -59
99 -87 146 -127 174 -155 458 -446 20 -22 37 -43 37 -48 0 -5 4 -11 9 -13 13
-5 121 -135 121 -146 0 -6 4 -12 8 -14 10 -4 92 -114 92 -123 0 -3 23 -40 50
-82 28 -42 50 -80 50 -85 0 -5 7 -20 16 -33 16 -25 18 -25 170 -25 103 0 154
4 154 11 0 30 -127 214 -269 389 -106 130 -348 374 -461 463 -187 149 -365
252 -529 307 -93 31 -111 35 -111 23z"/>
<path d="M6370 3302 c0 -4 26 -26 57 -49 104 -80 267 -229 437 -401 168 -172
186 -191 226 -242 19 -25 42 -52 50 -60 9 -8 36 -42 61 -75 24 -33 46 -62 49
-65 11 -11 60 -90 60 -97 0 -5 11 -20 25 -35 14 -15 25 -34 25 -42 0 -8 5 -18
10 -21 6 -3 19 -26 30 -49 11 -24 27 -46 36 -50 8 -3 83 -6 166 -6 l150 0 -32
58 c-66 116 -169 252 -331 437 -292 332 -607 570 -884 667 -80 29 -135 41
-135 30z"/>
<path d="M272 3152 c-10 -7 -10 -14 -1 -38 7 -16 16 -67 20 -114 4 -47 12
-136 17 -198 6 -63 15 -126 20 -140 6 -15 14 -72 17 -127 14 -208 20 -270 30
-285 6 -8 12 -69 15 -135 l5 -120 183 -3 182 -2 0 37 c0 38 -13 210 -50 683
-10 135 -22 291 -26 348 l-7 102 -196 0 c-108 0 -202 -4 -209 -8z"/>
<path d="M1478 3135 c-10 -13 -18 -33 -18 -44 0 -11 -4 -23 -10 -26 -5 -3 -10
-14 -10 -24 0 -10 -7 -24 -15 -31 -8 -7 -15 -21 -15 -31 0 -11 -4 -27 -9 -37
-5 -9 -12 -24 -15 -32 -3 -8 -10 -22 -15 -30 -5 -8 -14 -28 -21 -45 -23 -54
-43 -100 -51 -117 -5 -10 -9 -24 -9 -32 0 -7 -7 -19 -15 -26 -8 -7 -15 -21
-15 -31 0 -11 -4 -27 -9 -37 -4 -9 -16 -35 -26 -57 -9 -22 -21 -48 -26 -57 -5
-10 -9 -24 -9 -32 0 -7 -7 -19 -15 -26 -8 -7 -15 -21 -15 -31 0 -18 -8 -37
-32 -79 -4 -8 -11 -22 -14 -30 -3 -8 -17 -38 -30 -65 -13 -28 -24 -58 -24 -67
0 -9 -4 -20 -10 -23 -5 -3 -10 -16 -10 -27 0 -12 -6 -29 -14 -37 -7 -9 -16
-28 -20 -43 l-6 -28 160 0 c144 0 161 2 167 18 7 20 116 276 146 342 11 25 22
39 24 33 3 -7 10 -13 17 -13 8 0 12 -27 13 -87 4 -157 15 -278 27 -285 6 -4
78 -8 159 -8 l148 0 -5 73 c-3 39 -8 122 -11 182 -3 61 -13 232 -21 380 -8
149 -18 330 -21 403 l-6 132 -151 0 c-148 -1 -151 -1 -168 -25z"/>
<path d="M2572 3148 c-7 -7 -12 -20 -12 -30 0 -10 -4 -26 -9 -36 -4 -9 -16
-35 -26 -57 -9 -22 -21 -48 -26 -57 -5 -10 -9 -24 -9 -32 0 -7 -7 -19 -15 -26
-8 -7 -15 -23 -15 -36 0 -12 -4 -26 -10 -29 -5 -3 -10 -14 -10 -24 0 -10 -7
-24 -15 -31 -8 -7 -15 -23 -15 -36 0 -13 -4 -24 -10 -24 -5 0 -10 -7 -10 -16
0 -9 -7 -30 -16 -47 -31 -59 -34 -67 -34 -86 0 -10 -7 -24 -15 -31 -8 -7 -15
-19 -15 -26 0 -8 -4 -22 -9 -32 -5 -9 -12 -24 -15 -32 -3 -8 -10 -22 -15 -30
-5 -8 -14 -28 -21 -45 -6 -16 -18 -43 -26 -58 -8 -16 -14 -35 -14 -42 0 -11
-26 -69 -61 -137 -5 -10 -9 -26 -9 -37 0 -10 -7 -24 -15 -31 -8 -7 -15 -21
-15 -31 0 -10 -4 -21 -10 -24 -5 -3 -10 -13 -10 -21 0 -12 30 -14 179 -14 131
0 181 3 188 13 5 6 30 57 55 112 94 205 304 657 393 848 l93 197 -207 0 c-148
0 -210 -3 -219 -12z"/>
<path d="M3480 3145 c-13 -15 -26 -93 -36 -205 -4 -36 -11 -71 -17 -78 -5 -7
-14 -45 -19 -85 -5 -40 -12 -99 -16 -132 -4 -33 -12 -67 -17 -75 -5 -8 -13
-44 -17 -80 -14 -126 -24 -185 -32 -198 -8 -13 -19 -73 -35 -182 -4 -30 -10
-62 -12 -70 -3 -13 24 -15 199 -18 157 -2 203 0 206 10 2 7 12 60 21 118 10
58 24 138 31 178 8 40 28 151 44 245 16 95 42 246 59 337 16 91 32 184 35 208
l6 42 -194 0 c-159 0 -196 -3 -206 -15z"/>
<path d="M4101 3123 c-6 -21 -11 -59 -11 -84 0 -26 -6 -62 -14 -80 -8 -19 -17
-71 -21 -116 l-7 -83 196 0 c150 0 196 -3 197 -12 3 -51 -5 -136 -14 -153 -6
-11 -14 -47 -18 -80 -16 -131 -27 -201 -38 -228 -6 -16 -11 -44 -11 -63 0 -20
-4 -43 -9 -52 -5 -9 -11 -47 -13 -85 l-4 -67 200 2 200 3 8 45 c11 58 35 198
49 275 6 33 14 78 19 100 5 22 16 87 25 145 9 58 20 119 24 135 l7 30 209 3
c115 1 213 6 217 10 7 7 68 343 68 375 0 16 -42 17 -625 17 l-624 0 -10 -37z"/>
<path d="M5345 2653 c-9 -110 -8 -107 -30 -112 -13 -2 -32 11 -61 44 -24 28
-46 45 -53 41 -15 -9 -14 -119 1 -134 8 -8 8 -15 -2 -27 -15 -19 -27 -19 -62
-1 -20 11 -29 11 -36 3 -13 -15 4 -122 24 -159 7 -14 14 -33 14 -42 0 -9 5
-16 10 -16 6 0 10 -11 10 -25 0 -33 -11 -32 -73 10 -28 19 -57 35 -63 35 -13
0 -24 -22 -24 -48 0 -30 59 -137 103 -184 58 -64 77 -87 77 -94 0 -3 -25 -2
-55 1 -30 4 -55 5 -55 2 0 -21 36 -82 63 -106 68 -62 92 -81 119 -92 35 -14
27 -29 -15 -29 -109 -1 -100 -37 28 -123 121 -80 115 -74 80 -82 -56 -13 -55
-12 -41 -41 15 -27 73 -86 187 -186 35 -31 73 -65 84 -75 117 -108 354 -231
572 -295 62 -18 113 -38 113 -44 0 -14 -82 -42 -160 -53 -36 -5 -126 -13 -200
-16 -77 -4 -150 -13 -169 -21 -32 -13 -33 -16 -27 -52 3 -20 6 -45 6 -54 0
-15 13 -18 85 -20 48 -2 85 -7 85 -13 0 -5 -39 -25 -85 -44 l-85 -34 0 -43 c0
-58 18 -58 112 1 81 50 94 54 78 24 -16 -29 -43 -54 -92 -85 -57 -36 -67 -48
-74 -82 -9 -44 10 -48 63 -13 25 17 50 28 54 25 11 -6 12 -44 2 -44 -12 0 -58
-43 -70 -64 -11 -19 3 -76 19 -76 4 0 8 -5 8 -10 0 -19 73 -81 129 -110 57
-28 197 -74 261 -85 19 -3 55 0 80 8 l45 13 12 94 c6 52 12 128 12 169 1 90
17 146 47 170 13 10 94 44 181 76 370 136 424 185 486 445 13 58 30 146 37
195 21 154 67 284 115 317 17 13 73 9 87 -6 20 -19 79 -48 86 -42 3 3 0 23 -6
45 -7 21 -12 69 -12 106 0 54 -5 77 -25 110 -61 106 -221 99 -362 -14 -32 -26
-76 -58 -98 -71 -22 -13 -46 -30 -53 -37 -7 -7 -33 -21 -57 -32 -40 -18 -45
-24 -45 -52 0 -22 9 -42 27 -61 l27 -28 -23 0 c-16 0 -55 31 -125 100 -56 55
-120 112 -141 127 -22 15 -42 30 -45 33 -7 9 -92 67 -310 208 -240 156 -286
189 -353 252 -150 140 -282 328 -382 543 -38 79 -52 75 -60 -20z"/>
<path d="M6423 2223 c-7 -2 -13 -13 -13 -23 0 -10 -4 -22 -10 -25 -5 -3 -10
-19 -10 -35 0 -24 -4 -29 -21 -27 -16 1 -26 -7 -38 -31 -11 -22 -21 -31 -34
-28 -19 5 -37 -21 -37 -52 0 -11 -7 -33 -15 -48 -33 -63 -15 -94 87 -154 81
-48 261 -176 311 -221 17 -16 36 -29 42 -29 12 1 55 35 55 44 0 4 -24 41 -54
84 -117 168 -177 295 -211 446 -22 98 -27 109 -52 99z"/>
<path d="M3195 1958 c-2 -7 -6 -40 -8 -73 -2 -33 -8 -68 -12 -77 -7 -17 9 -18
258 -18 l266 0 6 33 c3 17 9 54 14 82 5 27 7 53 5 57 -3 5 -122 8 -265 8 -199
0 -261 -3 -264 -12z"/>
<path d="M4272 1958 c-7 -7 -12 -22 -12 -34 0 -13 -4 -26 -10 -29 -5 -3 -10
-28 -10 -56 l0 -49 258 2 257 3 12 55 c6 30 12 70 12 88 l1 32 -248 0 c-180 0
-251 -3 -260 -12z"/>
<path d="M378 1939 c-11 -6 -18 -22 -18 -39 0 -16 -4 -31 -9 -34 -5 -3 -11
-22 -13 -41 l-4 -35 1060 2 1060 3 17 45 c9 25 20 60 24 78 l7 32 -1054 0
c-697 -1 -1059 -4 -1070 -11z"/>
<path d="M572 1742 l-134 -3 6 -67 c2 -37 9 -119 14 -182 5 -63 13 -124 19
-135 6 -11 13 -56 16 -100 18 -249 27 -346 32 -355 4 -6 71 -10 164 -10 l157
0 139 323 c76 177 158 368 181 425 l43 102 -162 0 -163 0 -12 -33 c-7 -18 -12
-42 -12 -54 0 -11 -11 -26 -25 -33 -14 -7 -25 -20 -26 -29 0 -9 -7 2 -15 24
-8 22 -14 57 -12 77 1 20 0 39 -2 41 -10 9 -81 12 -208 9z"/>
<path d="M1653 1743 l-93 -4 0 -99 c0 -54 5 -111 12 -127 6 -15 15 -100 19
-188 5 -88 11 -222 15 -297 l6 -138 164 0 164 0 24 48 c13 26 76 160 139 297
63 138 142 307 175 378 l61 127 -178 0 c-190 0 -201 -3 -201 -50 0 -36 -28
-90 -46 -90 -8 0 -14 -5 -14 -11 0 -5 -4 -7 -10 -4 -5 3 -10 39 -10 79 0 84
-4 87 -90 84 -25 -1 -87 -4 -137 -5z"/>
<path d="M3224 1728 c-4 -6 -11 -41 -15 -77 -15 -118 -25 -175 -39 -206 -7
-16 -19 -43 -26 -60 -20 -46 -64 -91 -114 -116 -110 -57 -262 -3 -285 101 l-7
30 -188 0 c-151 0 -190 -3 -200 -14 -13 -17 -9 -145 7 -211 15 -61 52 -121
108 -177 102 -102 216 -148 387 -156 134 -5 197 7 308 63 212 107 375 319 421
548 33 166 47 272 36 279 -21 13 -385 10 -393 -4z"/>
<path d="M4267 1733 c-4 -3 -7 -35 -7 -69 0 -35 -4 -66 -10 -69 -5 -3 -10 -30
-10 -60 0 -30 -5 -66 -12 -82 -6 -15 -15 -59 -20 -98 -18 -156 -24 -191 -32
-203 -11 -18 -27 -112 -33 -195 l-5 -67 199 2 198 3 8 45 c4 25 12 68 17 95 5
28 14 77 19 110 6 33 18 98 26 145 46 258 75 424 75 436 0 11 -38 14 -203 14
-112 0 -207 -3 -210 -7z"/>
<path d="M3432 701 c-123 -7 -124 -7 -142 -73 -6 -20 -15 -40 -20 -43 -21 -13
3 -25 35 -19 53 10 72 -1 68 -39 -11 -96 -25 -265 -29 -359 l-5 -108 26 0 c37
0 92 25 103 47 5 11 5 67 0 138 -4 66 -7 167 -5 225 3 105 3 105 29 108 14 2
34 12 43 22 18 20 34 111 19 108 -5 -1 -60 -4 -122 -7z"/>
<path d="M4492 500 c-27 -11 -52 -35 -52 -48 0 -5 -7 -15 -15 -22 -9 -7 -15
-29 -15 -54 0 -49 24 -75 103 -115 36 -18 47 -29 47 -47 0 -18 -6 -24 -22 -25
-37 -2 -52 2 -70 18 -22 20 -68 9 -75 -17 -3 -11 -9 -20 -14 -20 -5 0 -9 -8
-9 -17 -1 -15 -4 -14 -22 7 -20 24 -20 33 -15 177 5 125 3 152 -8 157 -18 6
-76 -13 -90 -30 -5 -6 -19 -15 -31 -18 -16 -5 -23 0 -32 19 -17 38 -55 42 -93
11 -37 -31 -59 -33 -59 -6 0 42 -59 38 -103 -6 -19 -18 -24 -31 -18 -42 29
-57 31 -74 29 -182 -2 -83 -7 -118 -17 -126 -19 -15 3 -54 30 -54 27 0 79 28
80 43 1 6 2 67 3 134 1 99 4 125 17 139 20 20 61 10 58 -14 -3 -34 2 -42 25
-42 28 0 56 33 56 67 0 31 25 30 46 -2 14 -21 16 -48 13 -167 l-4 -143 32 -3
c38 -4 93 22 93 44 0 11 11 8 43 -15 56 -40 106 -48 162 -26 61 23 87 61 87
129 1 68 -17 94 -92 137 -36 21 -60 41 -60 52 0 15 10 17 70 17 l70 0 0 33 c0
21 -7 36 -20 45 -28 17 -100 24 -128 12z"/>
<path d="M3568 483 c-34 -22 -43 -56 -23 -95 18 -37 21 -168 4 -185 -15 -15 7
-102 29 -120 27 -22 69 -15 106 18 l35 30 16 -30 c17 -33 49 -40 99 -21 33 12
54 50 34 61 -30 16 -41 94 -35 224 4 75 3 126 -3 130 -16 10 -89 -17 -93 -34
-2 -9 -1 -53 1 -97 7 -115 0 -134 -43 -134 -18 0 -37 6 -42 13 -4 6 -8 66 -8
132 l0 120 -25 2 c-14 2 -37 -5 -52 -14z"/>
<path d="M4745 485 c-16 -7 -41 -23 -55 -34 l-25 -21 21 -17 c33 -27 42 -53
39 -118 -3 -92 -17 -189 -27 -202 -26 -32 31 -44 82 -18 33 17 32 13 30 150
-1 105 10 145 40 145 51 0 55 -10 55 -137 0 -65 -4 -128 -9 -140 -8 -21 -5
-23 28 -23 65 0 75 21 75 156 -1 134 9 156 58 138 l28 -10 -3 -121 c-2 -67 -1
-131 3 -142 8 -25 52 -28 94 -6 40 20 46 43 20 71 -19 21 -22 35 -23 151 -1
107 -4 133 -20 156 -24 35 -63 36 -117 0 l-40 -26 -25 26 c-29 32 -45 33 -99
7 -52 -25 -54 -25 -65 5 -11 28 -22 30 -65 10z"/>
<path d="M5325 481 c-38 -23 -65 -62 -65 -96 0 -14 -9 -44 -21 -67 -19 -37
-20 -45 -8 -82 7 -23 17 -47 22 -53 5 -7 7 -22 4 -33 -7 -26 51 -77 98 -86 66
-12 139 42 165 121 17 52 9 190 -15 235 -40 78 -113 102 -180 61z m99 -97 c12
-5 16 -21 16 -67 0 -71 -24 -107 -71 -107 -37 0 -53 30 -46 86 8 77 45 109
101 88z"/>
</g>
</svg>
